<?xml version="1.0" encoding="UTF-8"?> <svg xmlns="http://www.w3.org/2000/svg" xmlns:xlink="http://www.w3.org/1999/xlink" width="800px" height="800px" viewBox="0 0 800 800" version="1.1"><!-- Generator: Sketch 52.5 (67469) - http://www.bohemiancoding.com/sketch --><title>Untitled</title><desc>Created with Sketch.</desc><g id="Page-1" stroke="none" stroke-width="1" fill="none" fill-rule="evenodd"><g id="logo" transform="translate(23.000000, 45.000000)" fill="#FFFFFF"><g id="logo-logo" transform="translate(134.794186, 0.577633)"><g id="Group"><g transform="translate(241.890437, 169.434851) scale(-1, 1) rotate(-180.000000) translate(-241.890437, -169.434851) translate(156.390437, 0.434851)" fill-rule="nonzero" id="Shape"><path d="M65.5214931,298.215742 C65.5214931,302.313112 73.3080194,308.509134 85.0411644,308.509134 C96.7734625,308.509134 104.559989,302.313112 104.559989,298.215742 C104.559989,294.11922 96.7734625,287.922351 85.0411644,287.922351 C73.3080194,287.922351 65.5214931,294.11922 65.5214931,298.215742 Z M7.38085455,219.235941 L74.1024246,219.235941 L74.1024246,0.629680477 C77.6603099,0.270588988 81.2351334,0.0351469264 84.8311298,0.0351469264 C88.5702546,0.0351469264 92.283972,0.295996405 95.9790573,0.683882966 L95.9790573,219.235941 L147.320671,219.235941 L147.320671,203.384253 C147.320671,199.345321 150.551648,196.06353 154.59058,196.06353 L163.576336,196.06353 C167.614422,196.06353 170.846245,199.345321 170.846245,203.384253 L170.846245,235.490759 C170.846245,239.530538 167.614422,242.760668 163.576336,242.760668 L95.9790573,242.760668 L95.9790573,269.002295 L98.2106754,265.567212 C99.5420241,263.516833 102.282637,262.935004 104.333016,264.265505 L110.958423,268.568675 C113.007955,269.899176 113.590632,272.63979 112.259283,274.690168 L108.310124,280.772704 C114.610316,285.186819 118.543384,291.363362 118.543384,298.215742 C118.543384,298.392747 118.512048,298.563824 118.506967,298.739982 L126.987962,301.660141 C129.298344,302.455393 130.526369,304.974115 129.731117,307.285343 L127.159886,314.755124 C126.36294,317.065505 123.845065,318.294377 121.533837,317.498278 L110.738226,313.781173 C106.317335,317.609224 100.290696,320.412509 93.4162959,321.697277 L93.4162959,333.119605 C93.4162959,335.562951 91.4353643,337.54473 88.9903239,337.54473 L81.091158,337.54473 C78.6469646,337.54473 76.6651861,335.562951 76.6651861,333.119605 L76.6651861,321.69643 C69.7916329,320.412509 63.7641468,317.609224 59.3432563,313.781173 L48.5476449,317.498278 C46.2372638,318.294377 43.717695,317.065505 42.9224429,314.755124 L40.3503654,307.285343 C39.5551132,304.974115 40.7831384,302.455393 43.0943664,301.660141 L51.5745152,298.739982 C51.5694337,298.563824 51.5380979,298.392747 51.5380979,298.215742 C51.5380979,291.317629 55.5270623,285.106362 61.9017831,280.686319 L58.136404,275.868226 C56.631438,273.941496 56.9735912,271.160231 58.8994734,269.656112 L65.1242905,264.792286 C67.0510196,263.28732 69.8314379,263.628626 71.3364039,265.554508 L74.1024246,269.095455 L74.1024246,242.760668 L7.38085455,242.760668 C3.34192221,242.760668 0.0609778001,239.530538 0.0609778001,235.490759 L0.0609778001,226.505003 C0.0609778001,222.46607 3.34192221,219.235941 7.38085455,219.235941 Z"></path></g><g transform="translate(241.221198, 401.597689) scale(-1, 1) rotate(-180.000000) translate(-241.221198, -401.597689) translate(0.867036, 319.616424)" id="Path"><path d="M396.113907,130.022878 C366.530357,130.022878 339.397777,140.516142 318.234246,157.984587 C297.071562,140.516142 269.938135,130.022878 240.353739,130.022878 C210.770189,130.022878 183.636762,140.516142 162.474078,157.984587 C141.311394,140.516142 114.177966,130.022878 84.5935704,130.022878 C51.8002177,130.022878 22.0430513,142.940856 0.0664827404,163.935851 C37.7058768,67.9932113 131.062889,0.0266777875 240.353739,0.0266777875 C349.645435,0.0266777875 443.002447,67.9932113 480.641841,163.935851 C458.665273,142.940856 428.907259,130.022878 396.113907,130.022878"></path></g><g transform="translate(315.477872, 200.202118) scale(-1, 1) rotate(-180.000000) translate(-315.477872, -200.202118) translate(301.419101, 169.543835)" id="Path"><path d="M0.0182086486,14.093494 C0.0182086486,6.33915047 6.30485045,0.0525086612 14.0583471,0.0525086612 C21.8135376,0.0525086612 28.0993325,6.33915047 28.0993325,14.093494 C28.0993325,21.8478376 14.0583471,61.264057 14.0583471,61.264057 C14.0583471,61.264057 0.0182086486,21.8478376 0.0182086486,14.093494"></path></g></g></g><g id="text-logo-path" transform="translate(0.052515, 534.138354)" fill-rule="nonzero"><path d="M0.817250384,32.1189247 C0.817250384,29.020594 1.28331285,26.0272913 2.21543779,23.1390169 C3.14756272,20.263871 4.42759345,17.5593958 6.05552995,15.0255914 C9.7840297,9.94485407 14.2674194,6.30825397 19.5056989,4.11579109 C23.0635279,2.47472606 27.0152125,1.65419355 31.3607527,1.65419355 C37.728085,1.65419355 43.4258628,3.3740297 48.454086,6.813702 C53.29851,10.1483461 56.9941884,14.6054788 59.5411214,20.1850998 C61.0640297,23.9135996 61.8254839,27.8915412 61.8254839,32.1189247 C61.8254839,34.4295443 60.9918228,36.4316436 59.3245008,38.1252227 C57.6571787,39.8188018 55.6682079,40.6655914 53.3575883,40.6655914 C51.0469688,40.6655914 49.0448694,39.8188018 47.3512903,38.1252227 C45.6577112,36.4316436 44.8109217,34.4295443 44.8109217,32.1189247 C44.8109217,29.4669636 44.0757245,26.926595 42.6053303,24.4978187 C40.9773938,22.3053559 38.9490374,20.6971121 36.5202611,19.6730876 C34.8791961,19.003533 33.15936,18.6687558 31.3607527,18.6687558 C31.242596,18.6687558 31.1572606,18.6687558 31.1047465,18.6687558 C28.5052995,18.6687558 26.0765233,19.456467 23.8184178,21.0318894 C21.6259549,22.5547977 20.0242755,24.53064 19.0133794,26.9594163 C18.3306964,28.5873528 17.9893548,30.3071889 17.9893548,32.1189247 C17.9893548,34.2063594 18.3832104,36.1231234 19.1709217,37.8692166 C19.8536047,39.8384946 21.0679928,41.9850077 22.814086,44.3087558 C24.2188377,46.2780338 26.0830876,48.378597 28.4068356,50.6104455 C30.7174552,52.8291654 33.5926011,55.4614337 37.0322734,58.5072504 C38.5551818,59.8069739 40.2028111,61.2182898 41.9751613,62.7411982 C43.76064,64.2641065 45.526426,65.9576856 47.2725192,67.8219355 C49.1367691,69.6861854 50.72532,71.4519713 52.038172,73.1192934 C53.3641526,74.7734869 54.5916692,76.4211162 55.720722,78.0621813 C57.5849718,80.832299 58.9109524,83.4251818 59.6986636,85.8408295 C61.3397286,90.0156989 62.1602611,94.0789759 62.1602611,98.0306605 C62.1602611,104.174808 60.3813466,109.813507 56.8235177,114.946759 C53.502002,119.804311 49.0448694,123.49999 43.4521198,126.033794 C39.5135637,127.674859 35.5947005,128.495392 31.69553,128.495392 C25.4332258,128.495392 19.709191,126.716477 14.5234255,123.158648 C9.56084485,119.837133 5.86516641,115.38 3.43639017,109.78725 C1.91348182,106.071879 1.15202765,102.153016 1.15202765,98.0306605 C1.15202765,95.6018843 1.9988172,93.5407066 3.69239631,91.8471275 C5.38597542,90.1666769 7.38807476,89.3264516 9.69869432,89.3264516 C12.0093139,89.3264516 13.9982847,90.1666769 15.6656068,91.8471275 C17.3329288,93.5407066 18.1665899,95.6018843 18.1665899,98.0306605 C18.1665899,100.564465 18.928044,103.045755 20.4509524,105.474531 C22.0788889,107.680123 24.0219099,109.288367 26.2800154,110.299263 C28.0261086,110.981946 29.8312801,111.323287 31.69553,111.323287 C34.4656477,111.323287 36.946938,110.58809 39.1394009,109.117696 C41.3449923,107.476631 42.953236,105.500789 43.9641321,103.190169 C44.6468152,101.444076 44.9881567,99.6717256 44.9881567,97.8731183 C44.9881567,95.7856836 44.5943011,93.8623554 43.8065899,92.1031336 C43.1239068,90.1338556 41.9620328,88.0464209 40.3209677,85.8408295 C38.7980594,83.8715515 36.9272453,81.7316027 34.7085253,79.4209831 C32.4766769,77.1103635 29.5555812,74.4584025 25.9452381,71.4650998 C23.7396467,69.4958218 21.5077983,67.506851 19.2496928,65.4981874 C17.0047158,63.4895238 14.8910241,61.3298822 12.9086175,59.0192627 C8.39240655,54.1748387 5.1759191,49.2713364 3.25915515,44.3087558 C1.63121864,40.1338863 0.817250384,36.0706093 0.817250384,32.1189247 Z M76.1224424,120.027496 L76.1224424,34.9152995 C76.1224424,31.5806554 76.6147619,28.3182181 77.5994009,25.1279877 C78.5840399,21.9508858 80.0084844,19.0363543 81.8727343,16.3843932 C85.601234,10.7391295 90.5113006,6.70210958 96.6029339,4.27333333 C100.777803,2.52724014 105.123344,1.65419355 109.639555,1.65419355 C116.571413,1.65419355 122.800896,3.54470046 128.328003,7.32571429 C133.85511,11.0410855 137.833052,15.8920737 140.261828,21.878679 C142.126078,26.2767332 143.058203,30.6222734 143.058203,34.9152995 L143.058203,120.027496 C143.058203,122.338116 142.211413,124.327087 140.517834,125.994409 C138.824255,127.661731 136.763077,128.495392 134.334301,128.495392 C132.023682,128.495392 130.034711,127.661731 128.367389,125.994409 C126.713195,124.327087 125.886098,122.338116 125.886098,120.027496 L125.886098,84.9940399 C125.886098,84.1013006 125.603835,83.3595392 125.039309,82.7687558 C124.474782,82.1648438 123.713328,81.8628879 122.754946,81.8628879 L96.4256989,81.8628879 C95.519831,81.8628879 94.7715054,82.1648438 94.180722,82.7687558 C93.5899386,83.3595392 93.2945469,84.1013006 93.2945469,84.9940399 L93.2945469,120.027496 C93.2945469,122.338116 92.4608858,124.327087 90.7935637,125.994409 C89.1393702,127.661731 87.0978853,128.495392 84.6691091,128.495392 C82.3584895,128.495392 80.3563902,127.661731 78.6628111,125.994409 C76.969232,124.327087 76.1224424,122.338116 76.1224424,120.027496 Z M93.2945469,34.9152995 L93.2945469,61.8156375 C93.2945469,62.7215054 93.5899386,63.4238812 94.180722,63.922765 C94.7715054,64.4347773 95.519831,64.6907834 96.4256989,64.6907834 L122.754946,64.6907834 C123.647686,64.6907834 124.389447,64.4347773 124.98023,63.922765 C125.584142,63.4238812 125.886098,62.7215054 125.886098,61.8156375 L125.886098,34.9152995 C125.886098,31.4756272 124.953973,28.4823246 123.089724,25.9353917 C121.34363,23.2834306 118.973932,21.3075883 115.98063,20.0078648 C113.775038,19.1151254 111.661347,18.6687558 109.639555,18.6687558 C106.528095,18.6687558 103.449457,19.5680594 100.403641,21.3666667 C97.7516795,23.1127599 95.7758372,25.5415361 94.4761137,28.6529954 C94.029744,29.5457348 93.7212238,30.5566308 93.550553,31.6856836 C93.3798822,32.8147363 93.2945469,33.891275 93.2945469,34.9152995 Z M160.151536,120.027496 L160.151536,34.7380645 C160.151536,31.4165489 160.643856,28.1606759 161.628495,24.9704455 C162.613134,21.7802151 164.037578,18.8591193 165.901828,16.2071582 C169.630328,10.5618945 174.540394,6.53143881 180.632028,4.11579109 C184.806897,2.35656938 189.145873,1.47695853 193.648955,1.47695853 C200.593943,1.47695853 206.82999,3.36746544 212.357097,7.14847926 C217.884204,10.876979 221.862145,15.7279672 224.290922,21.7014439 C226.155172,26.0994982 227.087296,30.4450384 227.087296,34.7380645 L227.087296,120.027496 C227.087296,122.338116 226.240507,124.327087 224.546928,125.994409 C222.853349,127.661731 220.851249,128.495392 218.54063,128.495392 C216.216882,128.495392 214.19509,127.661731 212.475253,125.994409 C210.755417,124.327087 209.895499,122.338116 209.895499,120.027496 L209.895499,34.7380645 C209.895499,31.2983922 208.969939,28.3116539 207.118817,25.7778495 C205.359595,23.1258884 202.989898,21.1500461 200.009724,19.8503226 C197.804132,18.9444547 195.683876,18.4915207 193.648955,18.4915207 C190.550625,18.4915207 187.478551,19.3973886 184.432734,21.2091244 C181.780773,22.9552176 179.804931,25.3774296 178.505207,28.4757604 C178.058838,29.3816283 177.750317,30.3990886 177.579647,31.5281413 C177.408976,32.6571941 177.323641,33.7271685 177.323641,34.7380645 L177.323641,120.027496 C177.323641,122.338116 176.48998,124.327087 174.822657,125.994409 C173.155335,127.661731 171.11385,128.495392 168.698203,128.495392 C166.387583,128.495392 164.385484,127.661731 162.691905,125.994409 C160.998326,124.327087 160.151536,122.338116 160.151536,120.027496 Z M244.003395,94.8995084 L244.003395,34.7380645 C244.003395,31.4165489 244.469457,28.1606759 245.401582,24.9704455 C246.333707,21.7802151 247.784409,18.8591193 249.753687,16.2071582 C253.482186,10.5618945 258.392253,6.53143881 264.483886,4.11579109 C268.435571,2.35656938 272.722033,1.47695853 277.343272,1.47695853 L277.520507,1.47695853 C284.334209,1.47695853 290.511178,3.36746544 296.051413,7.14847926 C298.690246,9.01272913 301.053379,11.1592422 303.140814,13.5880184 C305.228249,16.0167947 306.895571,18.7212698 308.14278,21.7014439 C309.888874,25.8763134 310.76192,30.2218536 310.76192,34.7380645 C310.76192,37.0486841 309.915131,39.0639119 308.221551,40.7837481 C306.527972,42.5035842 304.525873,43.3635023 302.215253,43.3635023 C299.904634,43.3635023 297.915663,42.5035842 296.248341,40.7837481 C294.594147,39.0639119 293.767051,37.0486841 293.767051,34.7380645 C293.767051,31.7447619 292.834926,28.7580236 290.970676,25.7778495 C288.883241,23.0077317 286.454465,21.0318894 283.684347,19.8503226 C281.596912,18.9444547 279.542299,18.4915207 277.520507,18.4915207 C275.761285,18.4915207 274.133349,18.7147056 272.636697,19.1610753 C271.153175,19.6205735 269.702473,20.3032565 268.284593,21.2091244 C265.632632,22.9552176 263.65679,25.3774296 262.357066,28.4757604 C261.464327,30.5631951 261.017957,32.6506298 261.017957,34.7380645 L261.017957,94.8995084 C261.017957,97.9978392 261.943518,101.043656 263.794639,104.036959 C265.882074,106.807076 268.31085,108.782919 271.080968,109.964485 C272.827061,110.752197 274.973574,111.146052 277.520507,111.146052 C280.842023,111.146052 283.828761,110.213927 286.480722,108.349677 C289.132683,106.603584 291.108525,104.233886 292.408249,101.240584 C293.314117,99.0481208 293.767051,96.9344291 293.767051,94.8995084 L293.767051,84.6592627 C293.767051,83.8715515 293.484788,83.1823041 292.920261,82.5915207 C292.355735,82.0007373 291.594281,81.7053456 290.635899,81.7053456 L283.172335,81.7053456 C280.861715,81.7053456 278.872744,80.8716846 277.205422,79.2043625 C275.551229,77.5370405 274.724132,75.4955556 274.724132,73.0799078 C274.724132,70.7561598 275.551229,68.7474962 277.205422,67.0539171 C278.872744,65.3734665 280.861715,64.5332412 283.172335,64.5332412 L302.215253,64.5332412 C304.64403,64.5332412 306.67895,65.4062878 308.320015,67.152381 C309.947952,68.7803175 310.76192,70.7561598 310.76192,73.0799078 L310.76192,94.8995084 C310.76192,101.844496 308.845156,108.080543 305.011628,113.60765 C301.283129,119.0166 296.43214,123.047056 290.458664,125.699017 C286.283794,127.44511 281.971075,128.318157 277.520507,128.318157 C270.798705,128.318157 264.5364,126.401393 258.733594,122.567865 C256.081633,120.703615 253.725064,118.550538 251.663886,116.108633 C249.602709,113.6536 247.922258,110.903175 246.622535,107.857358 C244.876441,103.682488 244.003395,99.3632053 244.003395,94.8995084 Z M326.929693,120.027496 L326.929693,34.9152995 C326.929693,31.5806554 327.422012,28.3182181 328.406651,25.1279877 C329.39129,21.9508858 330.815735,19.0363543 332.679985,16.3843932 C336.408484,10.7391295 341.318551,6.70210958 347.410184,4.27333333 C351.585054,2.52724014 355.92403,1.65419355 360.427112,1.65419355 C367.372099,1.65419355 373.608146,3.54470046 379.135253,7.32571429 C384.66236,11.0410855 388.640302,15.8920737 391.069078,21.878679 C392.933328,26.2767332 393.865453,30.6222734 393.865453,34.9152995 L393.865453,120.027496 C393.865453,122.338116 393.018664,124.327087 391.325084,125.994409 C389.631505,127.661731 387.570328,128.495392 385.141551,128.495392 C382.830932,128.495392 380.841961,127.661731 379.174639,125.994409 C377.507317,124.327087 376.673656,122.338116 376.673656,120.027496 L376.673656,84.9940399 C376.673656,84.1013006 376.391393,83.3595392 375.826866,82.7687558 C375.275469,82.1648438 374.514014,81.8628879 373.542504,81.8628879 L347.232949,81.8628879 C346.327081,81.8628879 345.578756,82.1648438 344.987972,82.7687558 C344.397189,83.3595392 344.101797,84.1013006 344.101797,84.9940399 L344.101797,120.027496 C344.101797,122.338116 343.268136,124.327087 341.600814,125.994409 C339.946621,127.661731 337.905136,128.495392 335.476359,128.495392 C333.16574,128.495392 331.163641,127.661731 329.470061,125.994409 C327.776482,124.327087 326.929693,122.338116 326.929693,120.027496 Z M344.101797,34.9152995 L344.101797,61.8156375 C344.101797,62.7215054 344.397189,63.4238812 344.987972,63.922765 C345.578756,64.4347773 346.327081,64.6907834 347.232949,64.6907834 L373.542504,64.6907834 C374.448372,64.6907834 375.196697,64.4347773 375.787481,63.922765 C376.378264,63.4238812 376.673656,62.7215054 376.673656,61.8156375 L376.673656,34.9152995 C376.673656,31.4756272 375.748095,28.4823246 373.896974,25.9353917 C372.137752,23.2834306 369.768054,21.3075883 366.78788,20.0078648 C364.582289,19.1151254 362.462033,18.6687558 360.427112,18.6687558 C357.328781,18.6687558 354.256708,19.5680594 351.210891,21.3666667 C348.55893,23.1127599 346.583088,25.5415361 345.283364,28.6529954 C344.836994,29.5457348 344.528474,30.5566308 344.357803,31.6856836 C344.187133,32.8147363 344.101797,33.891275 344.101797,34.9152995 Z M411.451106,119.869954 L411.451106,10.1220891 C411.451106,7.79834101 412.330717,5.8093702 414.089939,4.15517665 C415.836032,2.48785458 417.864388,1.65419355 420.175008,1.65419355 C422.485627,1.65419355 424.474598,2.48785458 426.14192,4.15517665 C427.809242,5.8093702 428.642903,7.79834101 428.642903,10.1220891 L428.642903,108.349677 C428.642903,109.137389 428.938295,109.8332 429.529078,110.437112 C430.119862,111.027896 430.868187,111.323287 431.774055,111.323287 L453.258879,111.323287 C455.569498,111.323287 457.558469,112.170077 459.225791,113.863656 C460.893113,115.557235 461.726774,117.559334 461.726774,119.869954 C461.726774,122.285602 460.893113,124.327087 459.225791,125.994409 C457.558469,127.661731 455.569498,128.495392 453.258879,128.495392 L420.175008,128.495392 C417.864388,128.495392 415.836032,127.661731 414.089939,125.994409 C412.330717,124.327087 411.451106,122.285602 411.451106,119.869954 Z M470.174977,119.869954 L470.174977,10.1220891 C470.174977,7.79834101 471.054588,5.8093702 472.81381,4.15517665 C474.559903,2.48785458 476.588259,1.65419355 478.898879,1.65419355 C481.209498,1.65419355 483.198469,2.48785458 484.865791,4.15517665 C486.533113,5.8093702 487.366774,7.79834101 487.366774,10.1220891 L487.366774,108.349677 C487.366774,109.137389 487.662166,109.8332 488.252949,110.437112 C488.843733,111.027896 489.592058,111.323287 490.497926,111.323287 L511.98275,111.323287 C514.293369,111.323287 516.28234,112.170077 517.949662,113.863656 C519.616984,115.557235 520.450645,117.559334 520.450645,119.869954 C520.450645,122.285602 519.616984,124.327087 517.949662,125.994409 C516.28234,127.661731 514.293369,128.495392 511.98275,128.495392 L478.898879,128.495392 C476.588259,128.495392 474.559903,127.661731 472.81381,125.994409 C471.054588,124.327087 470.174977,122.285602 470.174977,119.869954 Z M531.360445,119.692719 L531.360445,9.94485407 C531.360445,7.63423451 532.194107,5.6452637 533.861429,3.97794163 C535.528751,2.31061956 537.517721,1.47695853 539.828341,1.47695853 L582.81768,1.47695853 C585.1283,1.47695853 587.117271,2.31061956 588.784593,3.97794163 C590.438786,5.6452637 591.265883,7.63423451 591.265883,9.94485407 C591.265883,12.2554736 590.438786,14.257573 588.784593,15.9511521 C587.117271,17.6447312 585.1283,18.4915207 582.81768,18.4915207 L551.407696,18.4915207 C550.514956,18.4915207 549.773195,18.7737839 549.182412,19.3383103 C548.591628,19.9028367 548.296237,20.6380338 548.296237,21.5439017 L548.296237,53.2689708 C548.296237,54.1748387 548.591628,54.8969073 549.182412,55.4351767 C549.773195,55.9603175 550.514956,56.2228879 551.407696,56.2228879 L574.093779,56.2228879 C576.404398,56.2228879 578.406498,57.0565489 580.100077,58.723871 C581.793656,60.391193 582.640445,62.4392422 582.640445,64.8680184 C582.640445,67.178638 581.793656,69.1807373 580.100077,70.8743164 C578.406498,72.5678955 576.404398,73.4146851 574.093779,73.4146851 L551.407696,73.4146851 C550.514956,73.4146851 549.773195,73.6969483 549.182412,74.2614747 C548.591628,74.826001 548.296237,75.5874552 548.296237,76.5458372 L548.296237,108.192135 C548.296237,108.979846 548.591628,109.669094 549.182412,110.259877 C549.773195,110.850661 550.514956,111.146052 551.407696,111.146052 L582.81768,111.146052 C585.1283,111.146052 587.117271,111.992842 588.784593,113.686421 C590.438786,115.38 591.265883,117.382099 591.265883,119.692719 C591.265883,122.121495 590.438786,124.169544 588.784593,125.836866 C587.117271,127.49106 585.1283,128.318157 582.81768,128.318157 L539.828341,128.318157 C537.517721,128.318157 535.528751,127.49106 533.861429,125.836866 C532.194107,124.169544 531.360445,122.121495 531.360445,119.692719 Z M603.534485,119.869954 L603.534485,10.1220891 C603.534485,7.79834101 604.381275,5.79624168 606.074854,4.11579109 C607.715919,2.47472606 609.75084,1.65419355 612.179616,1.65419355 L635.771567,1.65419355 C643.162924,1.65419355 649.851905,3.68254992 655.83851,7.73926267 C661.811987,11.8091039 666.210041,17.060512 669.032673,23.4934869 C669.938541,25.8041065 670.627788,28.1147261 671.100415,30.4253456 C671.58617,32.7359652 671.829048,35.1056631 671.829048,37.5344393 C671.829048,45.0308244 669.741613,51.7132412 665.566743,57.5816897 C664.779032,58.8814132 663.892857,60.1089299 662.908218,61.2642396 C661.910451,62.4195494 660.879862,63.4501382 659.816452,64.3560061 C659.251925,64.9205325 658.910584,65.6097798 658.792427,66.4237481 C658.687399,67.2508449 658.85807,67.9466564 659.304439,68.5111828 C662.520927,72.7910804 664.496769,77.4713978 665.231966,82.5521352 C665.573308,84.6395699 665.940906,87.0946032 666.334762,89.917235 C666.728618,92.7267384 667.135602,95.6740911 667.555714,98.7592934 C667.975827,101.831367 668.382811,104.77872 668.776667,107.601352 C669.170522,110.423984 669.538121,112.76086 669.879462,114.611982 L670.391475,118.589923 C670.443989,119.049421 670.470246,119.476098 670.470246,119.869954 C670.470246,121.668561 669.905719,123.36214 668.776667,124.950691 C667.319401,126.867455 665.428894,127.989944 663.105146,128.318157 C662.881961,128.436313 662.488105,128.495392 661.923579,128.495392 C659.836144,128.495392 657.991587,127.806144 656.389908,126.42765 C654.7751,125.036027 653.770768,123.243984 653.376912,121.051521 C653.376912,120.933364 653.179985,119.46297 652.786129,116.640338 C652.392273,113.830835 651.939339,110.476498 651.427327,106.577327 C650.928443,102.691285 650.38361,98.7592934 649.792826,94.7813518 C649.188914,90.8034101 648.722852,87.5409729 648.394639,84.9940399 C647.830113,81.6725243 646.333461,78.9680492 643.904685,76.8806144 C641.370881,74.675023 638.462913,73.5722273 635.180783,73.5722273 L623.758971,73.5722273 C622.866231,73.5722273 622.117906,73.8544905 621.513994,74.4190169 C620.92321,74.9835433 620.627819,75.7449974 620.627819,76.7033794 L620.627819,119.869954 C620.627819,122.285602 619.800722,124.327087 618.146528,125.994409 C616.479206,127.661731 614.490236,128.495392 612.179616,128.495392 C609.75084,128.495392 607.702791,127.661731 606.035469,125.994409 C604.368146,124.327087 603.534485,122.285602 603.534485,119.869954 Z M620.627819,21.7014439 L620.627819,53.4462058 C620.627819,54.2339171 620.92321,54.9231644 621.513994,55.5139478 C622.117906,56.1047312 622.866231,56.4001229 623.758971,56.4001229 L635.180783,56.4001229 L635.358018,56.4001229 L635.614025,56.4001229 L635.771567,56.4001229 C639.723251,56.4001229 643.222002,55.3564055 646.267819,53.2689708 C649.484306,51.1815361 651.80149,48.4179826 653.21937,44.9783103 C654.11211,42.4445059 654.591301,39.9632156 654.656943,37.5344393 C654.656943,33.8059396 653.613226,30.2809319 651.525791,26.9594163 C649.3202,23.847957 646.556646,21.5898515 643.235131,20.1850998 C640.806354,19.1742038 638.3185,18.6687558 635.771567,18.6687558 L623.758971,18.6687558 C622.866231,18.6687558 622.117906,18.9510189 621.513994,19.5155453 C620.92321,20.0800717 620.627819,20.8087046 620.627819,21.7014439 Z M684.767204,47.9322273 L684.767204,10.1220891 C684.767204,7.79834101 685.600865,5.8093702 687.268187,4.15517665 C688.935509,2.48785458 690.92448,1.65419355 693.2351,1.65419355 C695.545719,1.65419355 697.547819,2.48785458 699.241398,4.15517665 C700.934977,5.8093702 701.781767,7.79834101 701.781767,10.1220891 L701.781767,47.9322273 C701.781767,51.0436866 702.687634,54.0895033 704.49937,57.0696774 C706.245463,59.7216385 708.667675,61.6974808 711.766006,62.9972043 C712.671874,63.4567025 713.689334,63.7652227 714.818387,63.922765 C715.94744,64.0934357 717.017414,64.1787711 718.02831,64.1787711 C721.467983,64.1787711 724.540056,63.2532104 727.244531,61.4020891 C729.896493,59.6428674 731.846078,57.2731695 733.093287,54.2929954 C733.999155,52.087404 734.478346,49.967148 734.53086,47.9322273 L734.53086,10.1220891 C734.53086,7.79834101 735.364521,5.8093702 737.031843,4.15517665 C738.686037,2.48785458 740.675008,1.65419355 742.998756,1.65419355 C745.309375,1.65419355 747.298346,2.48785458 748.965668,4.15517665 C750.619862,5.8093702 751.446959,7.79834101 751.446959,10.1220891 L751.446959,47.9322273 C751.446959,54.8772145 749.556452,61.1132616 745.775438,66.6403687 C742.060067,72.049319 737.156564,76.0797747 731.064931,78.7317358 C730.500405,78.9680492 730.008085,79.1715412 729.587972,79.342212 C729.154731,79.4997542 728.655847,79.6638607 728.091321,79.8345315 C727.198582,80.5172145 726.752212,81.3640041 726.752212,82.3749002 L726.752212,119.869954 C726.752212,122.285602 725.905422,124.327087 724.211843,125.994409 C722.518264,127.661731 720.516165,128.495392 718.205545,128.495392 C715.776769,128.495392 713.72872,127.661731 712.061398,125.994409 C710.394076,124.327087 709.560415,122.285602 709.560415,119.869954 L709.560415,82.3749002 C709.560415,81.4690323 709.140302,80.6222427 708.300077,79.8345315 C706.659012,79.3881618 705.136103,78.8105069 703.731352,78.1015668 C702.313472,77.3926267 700.902156,76.5589657 699.497404,75.6005837 C696.845443,73.7494624 694.475745,71.596385 692.38831,69.1413518 C690.300876,66.6863185 688.640118,63.9358935 687.406037,60.8900768 C685.646815,56.7152074 684.767204,52.3959242 684.767204,47.9322273 Z" id="Shape"></path></g></g></g></svg> 