<?xml version="1.0" encoding="UTF-8"?> <svg xmlns="http://www.w3.org/2000/svg" xmlns:xlink="http://www.w3.org/1999/xlink" width="481px" height="481px" viewBox="0 0 481 481" version="1.1"><!-- Generator: Sketch 52.5 (67469) - http://www.bohemiancoding.com/sketch --><title>Untitled 2</title><desc>Created with Sketch.</desc><g id="Page-1" stroke="none" stroke-width="1" fill="none" fill-rule="evenodd"><g id="logo-logo" transform="translate(0.794186, 0.577633)"><g id="Group"><g transform="translate(240.617138, 168.089248) scale(-1, 1) rotate(-180.000000) translate(-240.617138, -168.089248) translate(155.947147, 0.847134)" fill="#253D47" fill-rule="nonzero" id="Shape"><path d="M64.9206529,295.481067 C64.9206529,299.540863 72.6357759,305.680067 84.2613265,305.680067 C95.886038,305.680067 103.601161,299.540863 103.601161,295.481067 C103.601161,291.42211 95.886038,285.282068 84.2613265,285.282068 C72.6357759,285.282068 64.9206529,291.42211 64.9206529,295.481067 Z M7.31317121,217.22552 L73.4228963,217.22552 L73.4228963,0.62390623 C76.9481553,0.268107654 80.4901973,0.0348246248 84.0532179,0.0348246248 C87.7580545,0.0348246248 91.4377167,0.293282081 95.0989176,0.677611675 L95.0989176,217.22552 L145.969722,217.22552 L145.969722,201.519195 C145.969722,197.5173 149.171071,194.265603 153.172965,194.265603 L162.076321,194.265603 C166.077377,194.265603 169.279564,197.5173 169.279564,201.519195 L169.279564,233.33128 C169.279564,237.334014 166.077377,240.534523 162.076321,240.534523 L95.0989176,240.534523 L95.0989176,266.535511 L97.3100715,263.131928 C98.6292115,261.100352 101.344693,260.523857 103.376269,261.842158 L109.940921,266.105867 C111.971658,267.424168 112.548992,270.139649 111.229852,272.171226 L107.316906,278.197984 C113.559325,282.571621 117.456327,288.691524 117.456327,295.481067 C117.456327,295.656449 117.425278,295.825957 117.420243,296.0005 L125.823467,298.893881 C128.112662,299.68184 129.329426,302.177465 128.541466,304.467499 L125.993814,311.868781 C125.204176,314.157975 122.709391,315.375578 120.419357,314.58678 L109.722743,310.903761 C105.342392,314.696708 99.3710179,317.474286 92.559657,318.747273 L92.559657,330.064857 C92.559657,332.485798 90.5968908,334.449403 88.1742717,334.449403 L80.3475422,334.449403 C77.9257622,334.449403 75.9621569,332.485798 75.9621569,330.064857 L75.9621569,318.746434 C69.1516351,317.474286 63.1794217,314.696708 58.7990713,310.903761 L48.102457,314.58678 C45.8132624,315.375578 43.3167984,314.157975 42.5288388,311.868781 L39.9803476,304.467499 C39.192388,302.177465 40.409152,299.68184 42.6991857,298.893881 L51.1015705,296.0005 C51.0965356,295.825957 51.0654872,295.656449 51.0654872,295.481067 C51.0654872,288.64621 55.0178723,282.491902 61.3341362,278.112391 L57.603286,273.33848 C56.1121207,271.429419 56.4511364,268.673659 58.359358,267.183332 L64.5270927,262.364108 C66.4361535,260.872943 69.191075,261.211119 70.6822403,263.119341 L73.4228963,266.627817 L73.4228963,240.534523 L7.31317121,240.534523 C3.31127637,240.534523 0.0604186262,237.334014 0.0604186262,233.33128 L0.0604186262,224.427924 C0.0604186262,220.426029 3.31127637,217.22552 7.31317121,217.22552 Z"></path></g><g transform="translate(240.000000, 397.914988) scale(-1, 1) rotate(-180.000000) translate(-240.000000, -397.914988) translate(1.849915, 316.685502)" fill="#3584AD" id="Path"><path d="M392.481493,128.830553 C363.169229,128.830553 336.285458,139.227591 315.315999,156.535849 C294.347379,139.227591 267.462769,128.830553 238.149665,128.830553 C208.837401,128.830553 181.952791,139.227591 160.984171,156.535849 C140.015551,139.227591 113.13094,128.830553 83.817837,128.830553 C51.3252033,128.830553 21.8409138,141.630071 0.0658730855,162.432539 C37.3601092,67.3697052 129.861026,0.0264331489 238.149665,0.0264331489 C346.439144,0.0264331489 438.94006,67.3697052 476.234296,162.432539 C454.459256,141.630071 424.974127,128.830553 392.481493,128.830553"></path></g><g transform="translate(313.575731, 198.366240) scale(-1, 1) rotate(-180.000000) translate(-313.575731, -198.366240) translate(299.645881, 167.989097)" fill="#3584AD" id="Path"><path d="M0.0180416731,13.964255 C0.0180416731,6.28101968 6.2470342,0.0520271503 13.9294303,0.0520271503 C21.6135048,0.0520271503 27.8416582,6.28101968 27.8416582,13.964255 C27.8416582,21.6474903 13.9294303,60.702258 13.9294303,60.702258 C13.9294303,60.702258 0.0180416731,21.6474903 0.0180416731,13.964255"></path></g></g></g></g></svg> 