<?xml version="1.0" encoding="UTF-8"?> <svg xmlns="http://www.w3.org/2000/svg" xmlns:xlink="http://www.w3.org/1999/xlink" width="512px" height="512px" viewBox="0 0 512 512" version="1.1"><!-- Generator: Sketch 52.5 (67469) - http://www.bohemiancoding.com/sketch --><title>Untitled</title><desc>Created with Sketch.</desc><g id="Page-1" stroke="none" stroke-width="1" fill="none" fill-rule="evenodd"><g id="bathroom-accessories" fill="#FFFFFF"><path d="M5.214844,302.152344 C17.34375,335.507812 48.84375,357.882812 84.335938,358.351562 L68.316406,502.527344 C68.050781,504.941406 68.824219,507.351562 70.441406,509.160156 C72.0625,510.96875 74.375,512 76.800781,512 L179.199219,512 C181.625,512 183.9375,510.96875 185.558594,509.160156 C187.175781,507.351562 187.949219,504.941406 187.683594,502.527344 L171.664062,358.351562 C218.367188,357.765625 255.9375,319.773438 256,273.066406 L256,264.535156 C256,259.820312 252.179688,256 247.464844,256 L185.707031,256 C225.238281,229.242188 248.492188,184.257812 247.464844,136.535156 C247.464844,61.25 193.878906,0 128,0 C62.121094,0 8.535156,61.25 8.535156,136.535156 C7.507812,184.257812 30.761719,229.242188 70.292969,256 L8.535156,256 C3.820312,256 0,259.820312 0,264.535156 L0,273.066406 C0.0195312,282.824219 1.726562,292.507812 5.042969,301.683594 C5.101562,301.84375 5.144531,301.996094 5.214844,302.152344 Z M86.332031,494.933594 L101.507812,358.398438 L154.492188,358.398438 L169.667969,494.933594 L86.332031,494.933594 Z M25.601562,136.535156 C25.601562,70.65625 71.535156,17.066406 128,17.066406 C184.464844,17.066406 230.398438,70.65625 230.398438,136.535156 C230.398438,202.410156 184.464844,256 128,256 C122.265625,255.957031 116.550781,255.355469 110.933594,254.203125 L110.933594,213.332031 C110.9375,208.621094 114.753906,204.804688 119.464844,204.800781 L128,204.800781 C132.710938,204.804688 136.527344,208.621094 136.535156,213.332031 C136.535156,218.046875 140.355469,221.867188 145.066406,221.867188 C149.78125,221.867188 153.601562,218.046875 153.601562,213.332031 C153.585938,199.203125 142.132812,187.75 128,187.734375 L119.464844,187.734375 C105.335938,187.75 93.882812,199.203125 93.867188,213.332031 L93.867188,249.03125 C54.160156,232.578125 25.601562,188.429688 25.601562,136.535156 Z M238.933594,273.066406 C238.890625,310.75 208.351562,341.289062 170.667969,341.332031 L85.332031,341.332031 C60.976562,341.304688 38.480469,328.296875 26.304688,307.199219 L59.734375,307.199219 C64.445312,307.199219 68.265625,303.378906 68.265625,298.667969 C68.265625,293.953125 64.445312,290.132812 59.734375,290.132812 L19.3125,290.132812 C17.84375,284.5625 17.089844,278.828125 17.066406,273.066406 L238.933594,273.066406 Z" id="Shape" fill-rule="nonzero"></path><path d="M93.867188,307.199219 L102.398438,307.199219 C107.113281,307.199219 110.933594,303.378906 110.933594,298.667969 C110.933594,293.953125 107.113281,290.132812 102.398438,290.132812 L93.867188,290.132812 C89.152344,290.132812 85.332031,293.953125 85.332031,298.667969 C85.332031,303.378906 89.152344,307.199219 93.867188,307.199219 Z" id="Path"></path><path d="M68.265625,93.867188 C70.53125,93.871094 72.703125,92.96875 74.300781,91.367188 L108.433594,57.234375 C110.652344,55.089844 111.539062,51.917969 110.761719,48.933594 C109.980469,45.949219 107.648438,43.621094 104.664062,42.839844 C101.683594,42.058594 98.507812,42.949219 96.367188,45.167969 L62.234375,79.300781 C59.792969,81.742188 59.0625,85.410156 60.382812,88.597656 C61.707031,91.785156 64.816406,93.867188 68.265625,93.867188 Z" id="Path"></path><path d="M159.632812,57.234375 C161.851562,55.089844 162.742188,51.917969 161.960938,48.933594 C161.179688,45.949219 158.847656,43.621094 155.867188,42.839844 C152.882812,42.058594 149.710938,42.949219 147.566406,45.167969 L53.699219,139.035156 C51.480469,141.175781 50.59375,144.347656 51.375,147.332031 C52.152344,150.316406 54.484375,152.644531 57.46875,153.425781 C60.453125,154.207031 63.625,153.316406 65.765625,151.101562 L159.632812,57.234375 Z" id="Path"></path><path d="M503.464844,298.667969 L494.933594,298.667969 L494.933594,290.132812 C494.933594,285.421875 491.113281,281.601562 486.398438,281.601562 C481.6875,281.601562 477.867188,285.421875 477.867188,290.132812 L477.867188,298.667969 L460.800781,298.667969 L460.800781,290.132812 C460.785156,276 449.332031,264.550781 435.199219,264.535156 L349.867188,264.535156 C335.734375,264.550781 324.28125,276 324.265625,290.132812 L324.265625,298.667969 L307.199219,298.667969 L307.199219,290.132812 C307.199219,285.421875 303.378906,281.601562 298.667969,281.601562 C293.953125,281.601562 290.132812,285.421875 290.132812,290.132812 L290.132812,298.667969 L281.601562,298.667969 C276.886719,298.667969 273.066406,302.488281 273.066406,307.199219 C273.066406,311.914062 276.886719,315.734375 281.601562,315.734375 L290.132812,315.734375 L290.132812,324.265625 C290.132812,328.980469 293.953125,332.800781 298.667969,332.800781 C303.378906,332.800781 307.199219,328.980469 307.199219,324.265625 L307.199219,315.734375 L324.265625,315.734375 L324.265625,435.199219 C324.277344,444.621094 331.914062,452.253906 341.332031,452.265625 L409.601562,452.265625 C419.019531,452.253906 426.65625,444.621094 426.667969,435.199219 L426.667969,426.667969 L443.734375,426.667969 C453.15625,426.65625 460.789062,419.019531 460.800781,409.601562 L460.800781,315.734375 L477.867188,315.734375 L477.867188,324.265625 C477.867188,328.980469 481.6875,332.800781 486.398438,332.800781 C491.113281,332.800781 494.933594,328.980469 494.933594,324.265625 L494.933594,315.734375 L503.464844,315.734375 C508.179688,315.734375 512,311.914062 512,307.199219 C512,302.488281 508.179688,298.667969 503.464844,298.667969 Z M426.667969,290.132812 C426.667969,285.421875 430.488281,281.601562 435.199219,281.601562 C439.914062,281.601562 443.734375,285.421875 443.734375,290.132812 L443.734375,298.667969 L426.667969,298.667969 L426.667969,290.132812 Z M409.601562,435.199219 L341.332031,435.199219 L341.332031,290.132812 C341.335938,285.421875 345.15625,281.605469 349.867188,281.601562 L411.171875,281.601562 C410.160156,284.332031 409.628906,287.21875 409.601562,290.132812 L409.601562,435.199219 Z M443.734375,409.601562 L426.667969,409.601562 L426.667969,315.734375 L443.734375,315.734375 L443.734375,409.601562 Z" id="Shape" fill-rule="nonzero"></path><path d="M494.933594,0 L307.199219,0 C297.777344,0.0117188 290.144531,7.644531 290.132812,17.066406 L290.132812,221.867188 C290.144531,231.289062 297.777344,238.921875 307.199219,238.933594 L494.933594,238.933594 C504.355469,238.921875 511.988281,231.289062 512,221.867188 L512,17.066406 C511.988281,7.644531 504.355469,0.0117188 494.933594,0 Z M494.9375,170.667969 L409.601562,170.667969 L409.601562,17.066406 L494.933594,17.066406 L494.9375,170.667969 Z M392.535156,17.066406 L392.535156,170.667969 L307.199219,170.667969 L307.199219,17.066406 L392.535156,17.066406 Z M307.199219,221.867188 L307.199219,187.734375 L494.941406,187.734375 L494.941406,221.867188 L307.199219,221.867188 Z" id="Shape" fill-rule="nonzero"></path><path d="M366.933594,102.398438 L375.464844,102.398438 C380.179688,102.398438 384,98.578125 384,93.867188 C384,89.152344 380.179688,85.332031 375.464844,85.332031 L366.933594,85.332031 C362.21875,85.332031 358.398438,89.152344 358.398438,93.867188 C358.398438,98.578125 362.21875,102.398438 366.933594,102.398438 Z" id="Path"></path><path d="M426.667969,102.398438 L435.199219,102.398438 C439.914062,102.398438 443.734375,98.578125 443.734375,93.867188 C443.734375,89.152344 439.914062,85.332031 435.199219,85.332031 L426.667969,85.332031 C421.953125,85.332031 418.132812,89.152344 418.132812,93.867188 C418.132812,98.578125 421.953125,102.398438 426.667969,102.398438 Z" id="Path"></path></g></g></svg> 