<?xml version="1.0" encoding="UTF-8"?> <svg xmlns="http://www.w3.org/2000/svg" id="Capa_1" height="512" viewBox="0 0 511.911 511.911" width="512"><g><path d="m511.197 481.911-6.763-21.797c-5.113-16.48-20.143-27.554-37.398-27.554h-42.498c-4.143 0-7.5 3.357-7.5 7.5s3.357 7.5 7.5 7.5h42.498c10.646 0 19.917 6.831 23.072 16.999l6.763 21.797c-.29.616 1.188 1.347-2.017 2.737h-477.763c-.503-.459-1.638.735-2.017-2.737l6.763-21.797c3.155-10.168 12.427-16.999 23.072-16.999h343.412c4.143 0 7.5-3.357 7.5-7.5s-3.357-7.5-7.5-7.5h-176.575v-36.504c.209-14.458-13.83-24.33-28.005-22.44v-47.721l36.343-16.823c3.759-1.739 5.396-6.197 3.655-9.956-1.74-3.759-6.194-5.396-9.957-3.655l-33.567 15.539c-5.126-9.698-15.313-16.325-27.024-16.325h-31.638v-185.93c0-1.54.052-3.085.135-4.63h20.668c-.109 1.538-.184 3.081-.184 4.63v158.695c0 4.143 3.358 7.5 7.5 7.5s7.5-3.357 7.5-7.5v-158.696c-.534-25.941 22.451-50.78 50.31-50.31h66.971c20.271 0 38.464 12.069 46.35 30.747l24.575 58.221c-9.993 6.14-15.522 17.948-13.438 29.806l6.482 36.883c2.892 17.074 21.563 28.893 39.24 22.019l53.155-20.867c16.318-5.916 23.784-27.527 13.78-42.834l-20.339-31.443c-6.867-10.615-19.849-15.471-31.846-12.298l-24.981-59.181c-15.815-37.464-52.311-61.672-92.978-61.672h-66.971c-56.689-.291-101.472 47.692-100.93 100.93v186.198c-14.97 1.959-26.568 14.787-26.568 30.283v48.392c-14.211-1.896-27.869 7.636-28.005 22.44v36.504c-19.613-1.989-38.598 8.398-44.469 27.554l-6.763 21.797c-3.24 9.382 4.387 22.454 16.343 22.183h477.764c10.496.237 19.737-10.759 16.343-22.185zm-379.676-413.323 18.157 9.814c-1.816 3.438-3.32 7.013-4.482 10.712h-21.379c1.668-7.153 4.24-14.019 7.704-20.526zm60.132-23.207c-4.17 1.034-8.203 2.49-12.081 4.335l-10.706-17.715c7.182-3.624 14.881-6.224 22.787-7.711zm220.012 103.732 5.081 7.855c-6.831 2.697-14.172 5.597-21.702 8.576-3.852 1.523-5.739 5.882-4.216 9.733 2.179 2.881 3.743 5.887 9.733 4.216 8.568-3.389 16.894-6.679 24.494-9.679l6.948 10.742c4.11 6.207 2.293 17.183-6.667 20.724l-53.155 20.867c-6.901 2.794-17.296-1.167-18.986-10.652l-2.172-12.359c5.462-2.173 11.33-4.504 17.414-6.918 3.851-1.527 5.733-5.888 4.206-9.737-1.527-3.851-5.886-5.731-9.737-4.206-5.028 1.995-9.908 3.933-14.535 5.773l-1.658-9.435c-1.153-6.561 2.51-13.089 8.709-15.522l39.3-15.428c4.383-2.145 13.36-.41 16.943 5.45zm-137.212-126.298c34.623 0 65.695 20.61 79.16 52.507l24.756 58.647-19.198 7.537-24.549-58.157c-10.236-24.246-33.854-39.913-60.169-39.913h-66.971c-.278 0-.553.011-.83.015v-20.618c.278-.003.551-.018.83-.018zm-118.333 17.097 10.726 17.748c-3.136 2.493-6.035 5.255-8.663 8.288l-18.456-9.976c4.726-6.041 10.259-11.466 16.393-16.06zm-61.135 285.313c0-8.575 6.976-15.551 15.55-15.551h42.656c5.687 0 10.656 3.078 13.368 7.646l-37.846 17.52c-3.759 1.739-5.396 6.197-3.655 9.956 1.268 2.739 3.979 4.352 6.811 4.352 1.054 0 2.126-.224 3.146-.696l33.727-15.613v40.778h-73.757zm-28.005 70.832c0-4.103 3.338-7.44 7.44-7.44h114.886c4.103 0 7.44 3.338 7.44 7.44v36.504h-129.766z"></path><path d="m402.574 272.759c-11.233 0-21.141 10.52-29.444 31.267-5.707 14.258-9.85 32.135-9.85 42.509 0 21.667 17.627 39.294 39.294 39.294 21.666 0 39.293-17.627 39.293-39.294 0-10.374-4.143-28.251-9.849-42.509-8.304-20.748-18.21-31.267-29.444-31.267zm0 98.069c-13.396 0-24.294-10.898-24.294-24.294 0-7.277 3.075-22.695 8.775-36.936 6.414-16.023 12.795-21.84 15.519-21.84s9.104 5.816 15.518 21.84c5.7 14.24 8.775 29.658 8.775 36.936 0 13.396-10.897 24.294-24.293 24.294z"></path></g></svg> 