<?xml version="1.0" encoding="UTF-8"?> <svg xmlns="http://www.w3.org/2000/svg" height="512pt" viewBox="-64 0 512 512" width="512pt"><path fill="#ffffff" d="m40.128906 512c.03125 0 .046875-.015625.078125-.015625h303.839844c.03125 0 .050781.015625.082031.015625 22.054688 0 40-17.945312 40-40 0-.214844-.113281-.40625-.128906-.617188v-30.144531c.015625-.421875.128906-.8125.128906-1.230469 0-.214843-.113281-.40625-.128906-.617187v-366.160156c.015625-.414063.128906-.804688.128906-1.230469 0-.214844-.113281-.40625-.128906-.625v-30.144531c.015625-.414063.128906-.804688.128906-1.230469 0-22.054688-17.945312-40-40-40h-304c-21.632812 0-39.199218 17.289062-39.871094 38.761719-.074218.414062-.257812.796875-.257812 1.238281v432c0 .441406.175781.824219.246094 1.238281.675781 21.472657 18.25 38.761719 39.882812 38.761719zm304.054688-16.007812c-.023438 0-.039063-.007813-.054688-.007813h-304c-.015625 0-.03125.007813-.058594.007813-13.207031-.023438-23.941406-10.777344-23.941406-23.992188 0-.089844-.050781-.160156-.050781-.230469 6.714844 5.09375 14.984375 8.238281 24.050781 8.238281.03125 0 .046875-.015624.078125-.015624h303.839844c.03125 0 .050781.015624.082031.015624 8.984375 0 17.183594-3.085937 23.871094-8.105468v.097656c0 .152344.078125.265625.089844.414062-.226563 13.027344-10.851563 23.554688-23.90625 23.578126zm-304.054688-400.007813c-.015625 0-.03125.007813-.058594.007813-13.207031-.03125-23.941406-10.777344-23.941406-24 0-.089844-.050781-.160157-.050781-.25 6.714844 5.113281 14.984375 8.257812 24.050781 8.257812.03125 0 .046875-.015625.078125-.015625h303.839844c.03125 0 .050781.015625.082031.015625 8.984375 0 17.183594-3.078125 23.871094-8.105469v1.335938c-.65625 12.632812-11.039062 22.730469-23.824219 22.761719-.023437 0-.039062-.007813-.054687-.007813zm303.917969 16c.03125 0 .050781.015625.082031.015625 8.984375 0 17.183594-3.078125 23.871094-8.105469v337.34375c-.65625 12.632813-11.039062 22.738281-23.824219 22.761719-.023437 0-.039062-.007812-.054687-.007812h-144.023438v-352.007813zm-303.917969-95.984375h304c13.09375 0 23.734375 10.542969 23.960938 23.585938-.011719.140624-.089844.261718-.089844.414062v1.238281c-.65625 12.632813-11.039062 22.730469-23.816406 22.761719-.023438 0-.039063-.007812-.054688-.007812h-304c-.015625-.007813-.03125.007812-.058594.007812-13.207031-.03125-23.941406-10.777344-23.941406-24 0-13.230469 10.765625-24 24-24zm-24.128906 87.6875c6.726562 5.144531 15.03125 8.3125 24.128906 8.3125.03125 0 .046875-.015625.078125-.015625h143.890625v352.007813h-143.96875c-.015625 0-.03125.007812-.058594.007812-13.207031-.023438-23.941406-10.777344-23.941406-23.992188 0-.214843-.113281-.40625-.128906-.617187v-247.335937c0-22.085938 17.96875-40.0625 40.046875-40.0625 19.617187 0 35.914063 14.199218 39.335937 32.839843-22.3125 4.121094-39.269531 23.679688-39.269531 47.167969v16c0 4.414062 3.574219 8 8 8h80c4.421875 0 8-3.585938 8-8v-16c0-23.929688-17.617187-43.761719-40.546875-47.359375-3.644531-27.417969-27.125-48.648437-55.511718-48.648437-15.6875 0-29.863282 6.496093-40.046876 16.910156v-49.214844zm120.113281 136.3125h-64v-8c0-17.585938 14.253907-31.878906 31.824219-31.984375.0625 0 .117188.03125.175781.03125.054688 0 .117188-.03125.175781-.03125 17.558594.097656 31.824219 14.398437 31.824219 31.984375zm0 0"></path><path fill="#ffffff" d="m224.113281 264v56.023438c-4.425781 0-8 3.578124-8 8 0 4.425781 3.574219 8 8 8h8c4.421875 0 8-3.574219 8-8v-72.023438c0-4.414062-3.578125-8-8-8h-8c-4.425781 0-8 3.585938-8 8s3.574219 8 8 8zm0 0"></path><path fill="#ffffff" d="m80.113281 264.007812c-4.425781 0-8 3.578126-8 8v176c0 4.425782 3.574219 8 8 8 4.421875 0 8-3.574218 8-8v-176c0-4.421874-3.578125-8-8-8zm0 0"></path><path fill="#ffffff" d="m104.113281 264.007812c-4.425781 0-8 3.578126-8 8v176c0 4.425782 3.574219 8 8 8 4.421875 0 8-3.574218 8-8v-176c0-4.421874-3.578125-8-8-8zm0 0"></path><path fill="#ffffff" d="m128.113281 264.007812c-4.425781 0-8 3.578126-8 8v176c0 4.425782 3.574219 8 8 8 4.421875 0 8-3.574218 8-8v-176c0-4.421874-3.578125-8-8-8zm0 0"></path></svg> 