<?xml version="1.0" encoding="UTF-8"?> <svg xmlns="http://www.w3.org/2000/svg" id="Capa_1" height="512" viewBox="0 0 512 512" width="512"><g><path fill="#ffffff" d="m481.584 204.374h-89.083v-27.986h26c4.15 0 7.515-3.365 7.515-7.515s-3.365-7.515-7.515-7.515h-67.03c-4.15 0-7.515 3.365-7.515 7.515s3.364 7.515 7.515 7.515h26v27.986h-91.383v-63.009c0-4.15-3.364-7.515-7.515-7.515-4.15 0-7.515 3.365-7.515 7.515v63.009h-18.254v-138.964c0-17.723-14.424-32.142-32.153-32.142s-32.154 14.419-32.154 32.144l.009 29.384h-18.262v-29.386c0-27.78 22.613-50.381 50.407-50.381s50.407 22.601 50.407 50.381v45.896c0 4.15 3.365 7.515 7.515 7.515s7.515-3.364 7.515-7.515v-45.896c0-36.067-29.354-65.41-65.436-65.41s-65.436 29.343-65.436 65.41v29.386h-4.102c-4.15 0-7.515 3.364-7.515 7.515s3.365 7.515 7.515 7.515h44.91.003 12.209c4.15 0 7.515-3.365 7.515-7.515s-3.365-7.515-7.515-7.515h-4.699l-.009-29.386c0-9.436 7.682-17.113 17.124-17.113s17.123 7.677 17.123 17.113v138.963h-103.247v-27.986h26c4.15 0 7.515-3.365 7.515-7.515s-3.364-7.515-7.515-7.515h-67.03c-4.15 0-7.515 3.365-7.515 7.515s3.365 7.515 7.515 7.515h26v27.986h-89.083c-16.771.001-30.415 13.645-30.415 30.416 0 16.772 13.644 30.416 30.415 30.416h7.615c13.387 87.859 88.152 153.628 177.283 155.42v50.703c.001 22.427 18.253 40.672 40.687 40.672s40.686-18.245 40.686-40.672v-50.699c39.816-.823 78.727-14.782 109.951-39.519 3.253-2.577 3.801-7.304 1.224-10.557-2.578-3.254-7.304-3.8-10.557-1.224-29.556 23.415-66.616 36.31-104.353 36.31h-73.903c-82.549 0-152.404-59.806-165.807-140.434h107.288c4.15 0 7.515-3.364 7.515-7.515s-3.364-7.515-7.515-7.515h-130.114c-8.484 0-15.386-6.902-15.386-15.387 0-8.484 6.902-15.386 15.386-15.386h451.169c8.484 0 15.387 6.902 15.387 15.386s-6.902 15.387-15.387 15.387h-290.996c-4.15 0-7.515 3.365-7.515 7.515s3.365 7.515 7.515 7.515h268.169c-5.225 31.485-19.123 60.517-40.498 84.395-2.768 3.092-2.505 7.843.587 10.611 3.082 2.761 7.836 2.513 10.611-.587 23.849-26.641 39.16-59.167 44.523-94.42h7.605c16.772 0 30.416-13.644 30.416-30.416-.001-16.77-13.645-30.414-30.417-30.414zm-225.584 292.597c-14.147 0-25.657-11.503-25.657-25.642v-50.66h51.314v50.66c0 14.139-11.51 25.642-25.657 25.642z"></path></g></svg> 