<?xml version="1.0" encoding="UTF-8"?> <svg xmlns="http://www.w3.org/2000/svg" id="Capa_1" height="512" viewBox="0 0 512.19 512.19" width="512"><g><g><path fill="#ffffff" d="m473.204.19c-469.413 0-438.217-1.314-446.655 2.968-.011.005-.021.011-.031.016-9.272 4.722-15.032 14.113-15.032 24.516v37.955c0 4.142 3.357 7.5 7.5 7.5s7.5-3.358 7.5-7.5v-37.955c0-4.735 2.626-9.01 6.854-11.157.005-.002.009-.005.014-.007 3.927-1.987-25.136-1.336 439.852-1.336 6.893 0 12.5 5.607 12.5 12.5v269.353c0 4.142 3.357 7.5 7.5 7.5s7.5-3.358 7.5-7.5v-269.353c-.002-15.163-12.338-27.5-27.502-27.5z"></path><path fill="#ffffff" d="m493.204 324.543c-4.143 0-7.5 3.358-7.5 7.5v33.263c0 6.346-4.675 11.179-9.603 12.164-2.192.519 20.976.336-437.116.336-6.893 0-12.5-5.607-12.5-12.5v-264.661c0-4.142-3.357-7.5-7.5-7.5s-7.5 3.358-7.5 7.5v264.661c0 15.164 12.337 27.5 27.5 27.5h35.715v95.028c0 13.43 10.926 24.356 24.356 24.356 12.722 0 23.394-9.94 24.296-22.631l6.872-96.753h251.742l6.872 96.754c.902 12.69 11.574 22.63 24.296 22.63 13.431 0 24.356-10.926 24.356-24.356v-95.028c38.739 0 37.904.25 42.085-.744.004-.001.009-.002.013-.003 12.433-2.959 21.116-13.96 21.116-26.753v-33.263c0-4.142-3.357-7.5-7.5-7.5zm-384.815 163.953c-.346 4.875-4.445 8.694-9.333 8.694-5.159 0-9.356-4.197-9.356-9.356v-95.028h25.486zm314.102-.662c0 5.159-4.197 9.356-9.356 9.356-4.888 0-8.987-3.819-9.333-8.693l-6.797-95.691h25.486z"></path><path fill="#ffffff" d="m439.313 354.663c9.649 0 17.5-7.851 17.5-17.5 0-11.006 0-270.324 0-281.33 0-9.649-7.851-17.5-17.5-17.5-12.62 0-348.872 0-366.436 0-9.649 0-17.5 7.851-17.5 17.5v281.33c0 9.649 7.851 17.5 17.5 17.5zm-241.436-301.33h115v13.5c0 2.219 6.508 1.5-113.5 1.5-.827 0-1.5-.673-1.5-1.5zm-127.5 2.5c0-1.378 1.121-2.5 2.5-2.5h110v13.5c0 9.098 7.402 16.5 16.5 16.5h112c9.098 0 16.5-7.402 16.5-16.5v-13.5h111.436c1.379 0 2.5 1.122 2.5 2.5v133.165c-16.441 0-365.337 0-371.436 0zm242.5 148.165v13.5c0 .827-.673 1.5-1.5 1.5h-112c-.827 0-1.5-.673-1.5-1.5v-13.5zm-242.5 133.165v-133.165h112.5v13.5c0 9.098 7.402 16.5 16.5 16.5h112c9.098 0 16.5-7.402 16.5-16.5v-13.5h113.936v133.165c0 1.378-1.121 2.5-2.5 2.5h-366.436c-1.379 0-2.5-1.122-2.5-2.5z"></path></g></g></svg> 