<?xml version="1.0" encoding="UTF-8"?> <svg xmlns="http://www.w3.org/2000/svg" id="icons" height="512" viewBox="0 0 64 64" width="512"><path fill="#ffffff" d="m44.5 7.012v-2.049c1.142-.231 2.004-1.242 2.004-2.451 0-1.38-1.122-2.502-2.502-2.502h-.001-.001-26.986c-.004 0-.006-.002-.01-.002-1.38 0-2.502 1.122-2.502 2.502 0 1.207.858 2.216 1.996 2.45v2.057c0 4.623 3.509 8.44 8.002 8.937v6.327c-.595.347-1 .985-1 1.722v2.097c-2.28.464-4.002 2.485-4.002 4.9v.001 21.991.001.01c0 .002-.001.004-.001.007 0 .004.002.008.003.012.016 6.052 4.94 10.97 10.995 10.972h.001.001.001.001c6.046-.002 10.965-4.906 10.994-10.945.001-.014.008-.024.008-.038 0-.002-.001-.004-.001-.007 0-.004.002-.007.002-.011v-6.984h1.996c0 .553.447 1 1 1h3c1.103 0 2-.897 2-2v-9.998c0-1.103-.897-2-2-2h-3c-.553 0-1 .447-1 1h-1.996v-3.008c0-.006-.004-.012-.004-.018-.007-2.408-1.725-4.421-4-4.884v-2.098c0-.736-.405-1.375-1-1.722v-6.325c4.494-.501 8.002-4.318 8.002-8.944zm.998 27.997h2v1.998h-2zm0 3.998h2v2h-2zm0 4h2v2h-2zm-3.996-6.998h1.996v7.998h-1.996zm-24.505-32.999c-.273-.004-.495-.227-.495-.5 0-.274.223-.498.497-.501.002 0 .003.001.005.001h26.996.001.001c.276 0 .502.226.502.502 0 .272-.22.493-.491.5-.004 0-.008-.003-.013-.003h-26.996c-.003 0-.005.001-.007.001zm13.5 58.982c-4.618 0-8.431-3.498-8.938-7.983h17.875c-.506 4.485-4.319 7.983-8.937 7.983zm6.012-33.992c1.649.005 2.991 1.348 2.991 2.999 0 .003.002.006.002.01v3.903c-.003.033-.02.063-.02.097s.017.063.02.097v9.805c-.003.033-.02.063-.02.097s.017.063.02.097v6.905h-18.004v-21.01c0-.001 0-.001 0-.001 0-1.649 1.338-2.991 2.986-3 .005 0 .01.003.016.003h11.998c.004 0 .007-.002.011-.002zm-2.011-5.998h-7.998v-5.991h7.998zm1 2v2h-2v-2zm-4 0v2h-2v-2zm-4 0v2h-1.998v-2zm8.043-9.99c-.016-.001-.027-.009-.043-.009-.014 0-.025.007-.039.008h-9.92c-.014-.001-.025-.008-.039-.008-.012 0-.021.006-.032.007-3.845-.014-6.97-3.146-6.97-6.993v-2.008h24.002v2.003c0 3.846-3.118 6.976-6.959 7z"></path></svg> 