<?xml version="1.0" encoding="UTF-8"?> <svg xmlns="http://www.w3.org/2000/svg" id="Capa_1" height="512" viewBox="0 0 512 512" width="512"><g><path fill="#ffffff" d="m487 40.49h-57.61v-10.49c.076-16.416-13.74-30.073-29.992-30-.001 0-.002 0-.004 0h-182.242c-4.142 0-7.5 3.358-7.5 7.5s3.358 7.5 7.5 7.5h156.274c-2.561 4.416-4.036 9.538-4.036 15v388.279c-7.126-3.198-15.706-6.325-30.352-6.325-16.744 0-25.557 4.089-33.333 7.696-7.291 3.383-13.587 6.304-27.021 6.304s-19.731-2.921-27.022-6.304c-7.776-3.607-16.59-7.696-33.334-7.696-16.745 0-25.559 4.089-33.335 7.696-7.292 3.382-13.588 6.304-27.023 6.304-13.436 0-19.735-2.921-27.029-6.303-5-2.318-10.535-4.875-18.334-6.377v-372.392c0-14.271 11.61-25.882 25.882-25.882h43.664c4.142 0 7.5-3.358 7.5-7.5s-3.358-7.5-7.5-7.5h-43.664c-22.411 0-40.66 18.128-40.872 40.49h-72.617c-13.785 0-25 11.215-25 25s11.215 25 25 25h72.606v394.01c0 15.164 12.336 27.5 27.5 27.5h231.788c15.164 0 27.5-12.336 27.5-27.5v-9.51h17.496c15.164 0 27.5-12.336 27.5-27.5v-82.877c0-4.142-3.358-7.5-7.5-7.5s-7.5 3.358-7.5 7.5v82.877c0 6.893-5.607 12.5-12.5 12.5h-17.496v-369.5h29.996v239.123c0 4.142 3.358 7.5 7.5 7.5s7.5-3.358 7.5-7.5v-239.123h57.61c13.785 0 25-11.215 25-25s-11.215-25-25-25zm-389.394 35h-72.606c-5.514 0-10-4.486-10-10s4.486-10 10-10h72.606zm15 353.139c4.525 1.16 8.103 2.813 12.024 4.631 7.778 3.606 16.595 7.694 33.339 7.694 16.745 0 25.559-4.089 33.336-7.696 7.292-3.382 13.588-6.304 27.023-6.304 13.434 0 19.731 2.921 27.022 6.304 7.776 3.607 16.59 7.696 33.334 7.696s25.557-4.089 33.333-7.696c7.291-3.383 13.587-6.304 27.021-6.304 15.177 0 20.858 3.586 30.352 7.82v16.306c-7.125-3.198-15.706-6.326-30.352-6.326-16.744 0-25.557 4.089-33.333 7.696-7.291 3.383-13.587 6.304-27.021 6.304s-19.731-2.921-27.022-6.304c-7.776-3.607-16.59-7.696-33.334-7.696-16.745 0-25.559 4.089-33.335 7.696-7.292 3.382-13.588 6.304-27.023 6.304-13.436 0-19.735-2.921-27.029-6.303-4.999-2.318-10.535-4.875-18.334-6.377v-17.445zm256.788 55.871c0 6.893-5.607 12.5-12.5 12.5h-231.788c-6.893 0-12.5-5.607-12.5-12.5v-23.071c4.525 1.16 8.103 2.812 12.024 4.631 7.778 3.606 16.594 7.694 33.338 7.694 16.745 0 25.559-4.089 33.336-7.696 7.292-3.382 13.588-6.304 27.023-6.304 13.434 0 19.731 2.921 27.022 6.304 7.776 3.607 16.59 7.696 33.334 7.696s25.557-4.089 33.333-7.696c7.291-3.383 13.587-6.304 27.021-6.304 15.179 0 20.86 3.587 30.355 7.822v16.924zm14.998-454.539c.021-8.253 6.74-14.961 14.998-14.961 8.133 0 15.047 6.834 15 15v10.49h-29.996v-10.49c0-.013-.002-.026-.002-.039zm102.608 45.529h-102.606v-20h102.606c5.514 0 10 4.486 10 10s-4.486 10-10 10z"></path></g></svg> 