<?xml version="1.0" encoding="UTF-8"?> <svg xmlns="http://www.w3.org/2000/svg" id="Layer_1" height="512" viewBox="0 0 128 128" width="512" data-name="Layer 1"><path fill="#ffffff" d="m37.272 26.153v63.987a1.75 1.75 0 0 0 1.75 1.75h49.956a1.75 1.75 0 0 0 1.75-1.75v-63.987a1.75 1.75 0 0 0 -1.75-1.75h-49.956a1.75 1.75 0 0 0 -1.75 1.75zm6.057 62.237c5.184-1.79 12.681-2.852 20.671-2.852s15.487 1.062 20.671 2.852zm22.148-60.49-.654 8.055a.826.826 0 0 1 -1.646 0l-.654-8.055zm-6.466 0 .677 8.339a4.326 4.326 0 0 0 8.623 0l.677-8.339h18.24v57.7c-5.642-2.256-14.037-3.57-23.228-3.57s-17.585 1.314-23.228 3.57v-57.7z"></path><path fill="#ffffff" d="m96.375 17.5h-27.25v-4.125a1.75 1.75 0 0 0 -1.75-1.75h-6.75a1.75 1.75 0 0 0 -1.75 1.75v4.125h-27.25a1.75 1.75 0 0 0 -1.75 1.75v71.085a8.467 8.467 0 0 0 8.458 8.458 10.942 10.942 0 0 1 9.917 6.644c2.953 6.686 8.988 10.84 15.751 10.84s12.8-4.154 15.751-10.84a10.942 10.942 0 0 1 9.917-6.644 8.467 8.467 0 0 0 8.458-8.458v-71.085a1.75 1.75 0 0 0 -1.752-1.75zm-34-2.375h3.25v2.375h-3.25zm32.25 75.21a4.963 4.963 0 0 1 -4.958 4.958 14.444 14.444 0 0 0 -13.119 8.73c-2.384 5.4-7.193 8.754-12.549 8.754s-10.165-3.354-12.549-8.754a14.444 14.444 0 0 0 -13.119-8.73 4.963 4.963 0 0 1 -4.958-4.958v-69.335h61.25z"></path><path fill="#ffffff" d="m63.118 107.738c-5.582-2.106-6.748-5.877-6.8-6.074a1.75 1.75 0 0 0 -3.38.906c.061.229 1.564 5.655 8.95 8.442a1.75 1.75 0 1 0 1.235-3.274z"></path></svg> 